# xmcd CD database file
#
# Track frame offsets:
#	150
#	50313
#	94266
#	138743
#	184686
#	229956
#
# Disc length: 3928 seconds
#
# Revision: 2
# Processed by: cddbd v1.5.2PL0 Copyright (c) Steve Scherf et al.
# Submitted via: CDex 1.51
#
DISCID=500f5606
DTITLE=Andy Middleton - The European Quartet Live
DYEAR=2005
DGENRE=Jazz
TTITLE0=Mister Jorge
TTITLE1=Christus Factus
TTITLE2=The Gate
TTITLE3=Afghan Caravan Song
TTITLE4=Cherry Street
TTITLE5=Up The River
EXTD=YEAR: 2005
EXTT0=
EXTT1=
EXTT2=
EXTT3=
EXTT4=
EXTT5=
PLAYORDER=
